<mxfile host="app.diagrams.net" modified="2022-06-08T08:23:33.161Z" agent="5.0 (Windows NT 10.0; Win64; x64) AppleWebKit/537.36 (KHTML, like Gecko) Chrome/86.0.4240.183 Safari/537.36" etag="QLTHC_E7afb5uKpXUHRc" version="19.0.0" type="github">
  <diagram id="z1nYzpGSkrIngI8rPNGt" name="第 1 页">
    <mxGraphModel dx="1038" dy="500" grid="1" gridSize="10" guides="1" tooltips="1" connect="1" arrows="1" fold="1" page="1" pageScale="1" pageWidth="827" pageHeight="1169" math="0" shadow="0">
      <root>
        <mxCell id="0" />
        <mxCell id="1" parent="0" />
        <mxCell id="ZQCDsR7qDWwaSNCqFVAh-2" value="&lt;font style=&quot;font-size: 14px;&quot;&gt;本地链路&lt;/font&gt;" style="ellipse;shape=cloud;whiteSpace=wrap;html=1;fillColor=#ffe6cc;strokeColor=#d79b00;" vertex="1" parent="1">
          <mxGeometry x="95" width="120" height="80" as="geometry" />
        </mxCell>
        <mxCell id="ZQCDsR7qDWwaSNCqFVAh-3" value="&lt;font style=&quot;font-size: 14px;&quot;&gt;外部链路&lt;/font&gt;" style="ellipse;shape=cloud;whiteSpace=wrap;html=1;fillColor=#ffe6cc;strokeColor=#d79b00;" vertex="1" parent="1">
          <mxGeometry x="385" width="120" height="80" as="geometry" />
        </mxCell>
        <mxCell id="ZQCDsR7qDWwaSNCqFVAh-4" value="本地代理" style="shape=cube;whiteSpace=wrap;html=1;boundedLbl=1;backgroundOutline=1;darkOpacity=0.05;darkOpacity2=0.1;fontSize=14;fillColor=#dae8fc;strokeColor=#6c8ebf;" vertex="1" parent="1">
          <mxGeometry x="110" y="130" width="90" height="70" as="geometry" />
        </mxCell>
        <mxCell id="ZQCDsR7qDWwaSNCqFVAh-5" value="外部代理" style="shape=cube;whiteSpace=wrap;html=1;boundedLbl=1;backgroundOutline=1;darkOpacity=0.05;darkOpacity2=0.1;fontSize=14;fillColor=#dae8fc;strokeColor=#6c8ebf;" vertex="1" parent="1">
          <mxGeometry x="400" y="130" width="90" height="70" as="geometry" />
        </mxCell>
        <mxCell id="ZQCDsR7qDWwaSNCqFVAh-7" value="&lt;br&gt;&lt;br&gt;移动终端" style="shape=actor;whiteSpace=wrap;html=1;fontSize=14;fillColor=#e1d5e7;strokeColor=#9673a6;" vertex="1" parent="1">
          <mxGeometry x="220" y="170" width="60" height="60" as="geometry" />
        </mxCell>
        <mxCell id="ZQCDsR7qDWwaSNCqFVAh-9" value="" style="endArrow=classic;startArrow=classic;html=1;rounded=0;fontSize=14;edgeStyle=orthogonalEdgeStyle;" edge="1" parent="1">
          <mxGeometry width="50" height="50" relative="1" as="geometry">
            <mxPoint x="160" y="130" as="sourcePoint" />
            <mxPoint x="440" y="130" as="targetPoint" />
            <Array as="points">
              <mxPoint x="160" y="110" />
              <mxPoint x="440" y="110" />
              <mxPoint x="440" y="130" />
            </Array>
          </mxGeometry>
        </mxCell>
        <mxCell id="ZQCDsR7qDWwaSNCqFVAh-10" value="数据收发" style="text;html=1;strokeColor=none;fillColor=none;align=center;verticalAlign=middle;whiteSpace=wrap;rounded=0;fontSize=14;" vertex="1" parent="1">
          <mxGeometry x="260" y="80" width="60" height="30" as="geometry" />
        </mxCell>
        <mxCell id="ZQCDsR7qDWwaSNCqFVAh-12" value="&lt;br&gt;&lt;br&gt;移动终端" style="shape=actor;whiteSpace=wrap;html=1;fontSize=14;fillColor=#e1d5e7;strokeColor=#9673a6;" vertex="1" parent="1">
          <mxGeometry x="325" y="170" width="60" height="60" as="geometry" />
        </mxCell>
        <mxCell id="ZQCDsR7qDWwaSNCqFVAh-13" value="" style="endArrow=none;dashed=1;html=1;dashPattern=1 3;strokeWidth=2;rounded=0;fontSize=14;exitX=1;exitY=0.75;exitDx=0;exitDy=0;entryX=0;entryY=0.75;entryDx=0;entryDy=0;" edge="1" parent="1" source="ZQCDsR7qDWwaSNCqFVAh-7" target="ZQCDsR7qDWwaSNCqFVAh-12">
          <mxGeometry width="50" height="50" relative="1" as="geometry">
            <mxPoint x="480" y="260" as="sourcePoint" />
            <mxPoint x="320" y="215" as="targetPoint" />
          </mxGeometry>
        </mxCell>
        <mxCell id="ZQCDsR7qDWwaSNCqFVAh-14" value="移动" style="text;html=1;strokeColor=none;fillColor=none;align=center;verticalAlign=middle;whiteSpace=wrap;rounded=0;fontSize=14;" vertex="1" parent="1">
          <mxGeometry x="270" y="185" width="60" height="30" as="geometry" />
        </mxCell>
        <mxCell id="ZQCDsR7qDWwaSNCqFVAh-21" value="" style="endArrow=classic;html=1;rounded=0;fontSize=14;exitX=1;exitY=0.75;exitDx=0;exitDy=0;entryX=0.556;entryY=1;entryDx=0;entryDy=0;entryPerimeter=0;" edge="1" parent="1" source="ZQCDsR7qDWwaSNCqFVAh-12" target="ZQCDsR7qDWwaSNCqFVAh-5">
          <mxGeometry width="50" height="50" relative="1" as="geometry">
            <mxPoint x="480" y="260" as="sourcePoint" />
            <mxPoint x="530" y="210" as="targetPoint" />
          </mxGeometry>
        </mxCell>
        <mxCell id="ZQCDsR7qDWwaSNCqFVAh-22" value="" style="endArrow=classic;html=1;rounded=0;fontSize=14;exitX=0;exitY=0;exitDx=55;exitDy=70;entryX=0;entryY=0;entryDx=55;entryDy=70;entryPerimeter=0;exitPerimeter=0;" edge="1" parent="1" target="ZQCDsR7qDWwaSNCqFVAh-4">
          <mxGeometry width="50" height="50" relative="1" as="geometry">
            <mxPoint x="219.99999999999994" y="215" as="sourcePoint" />
            <mxPoint x="154.95999999999998" y="230" as="targetPoint" />
          </mxGeometry>
        </mxCell>
        <mxCell id="ZQCDsR7qDWwaSNCqFVAh-24" value="" style="endArrow=classic;html=1;rounded=0;fontSize=14;shape=link;" edge="1" parent="1">
          <mxGeometry width="50" height="50" relative="1" as="geometry">
            <mxPoint x="110" y="90" as="sourcePoint" />
            <mxPoint x="130" y="70" as="targetPoint" />
          </mxGeometry>
        </mxCell>
        <mxCell id="ZQCDsR7qDWwaSNCqFVAh-25" value="定期广播" style="text;html=1;strokeColor=none;fillColor=none;align=center;verticalAlign=middle;whiteSpace=wrap;rounded=0;fontSize=14;" vertex="1" parent="1">
          <mxGeometry x="80" y="90" width="60" height="30" as="geometry" />
        </mxCell>
        <mxCell id="ZQCDsR7qDWwaSNCqFVAh-26" value="" style="endArrow=classic;html=1;rounded=0;fontSize=14;shape=link;" edge="1" parent="1">
          <mxGeometry width="50" height="50" relative="1" as="geometry">
            <mxPoint x="490" y="90" as="sourcePoint" />
            <mxPoint x="480" y="70" as="targetPoint" />
          </mxGeometry>
        </mxCell>
        <mxCell id="ZQCDsR7qDWwaSNCqFVAh-27" value="定期广播" style="text;html=1;strokeColor=none;fillColor=none;align=center;verticalAlign=middle;whiteSpace=wrap;rounded=0;fontSize=14;" vertex="1" parent="1">
          <mxGeometry x="460" y="90" width="60" height="30" as="geometry" />
        </mxCell>
      </root>
    </mxGraphModel>
  </diagram>
</mxfile>
